<svg xmlns="http://www.w3.org/2000/svg" version="1.1" xmlns:xlink="http://www.w3.org/1999/xlink" xmlns:svgjs="http://svgjs.dev/svgjs" width="2000" height="1247" viewBox="0 0 2000 1247"><g transform="matrix(1,0,0,1,-1.2121212121212466,0.504858299595071)"><svg viewBox="0 0 396 247" data-background-color="#000000" preserveAspectRatio="xMidYMid meet" height="1247" width="2000" xmlns="http://www.w3.org/2000/svg" xmlns:xlink="http://www.w3.org/1999/xlink"><g id="tight-bounds" transform="matrix(1,0,0,1,0.2400000000000091,-0.09999999999999432)"><svg viewBox="0 0 395.52 247.2" height="247.2" width="395.52"><rect width="395.52" height="247.2" fill="url(#a5a67b81-010a-4acb-b564-c592cbc80073)" mask="url(#ae2f7c31-7dbb-46c1-ae9a-2dfa4cb4dba8)" data-fill-palette-color="tertiary"></rect><g><svg></svg></g><g><svg viewBox="0 0 395.52 247.2" height="247.2" width="395.52"><g transform="matrix(1,0,0,1,121.92729413735792,37.08)"><svg viewBox="0 0 151.66541172528414 173.04" height="173.04" width="151.66541172528414"><g><svg viewBox="0 0 316.416 361.00930342097365" height="173.04" width="151.66541172528414"><g transform="matrix(1,0,0,1,0,223.1182324891238)"><svg viewBox="0 0 316.416 137.8910709318498" height="137.8910709318498" width="316.416"><g id="textblocktransform"><svg viewBox="0 0 316.416 137.8910709318498" height="137.8910709318498" width="316.416" id="textblock"><g><svg viewBox="0 0 316.416 137.8910709318498" height="137.8910709318498" width="316.416"><g transform="matrix(1,0,0,1,0,0)"><svg width="316.416" viewBox="2.5 -37 107.84 47" height="137.8910709318498" data-palette-color="url(#2e54867d-d896-4865-acaf-4b55d7ab4840)"></svg></g></svg></g></svg></g></svg></g><g transform="matrix(1,0,0,1,62.1325475523105,0)"><svg viewBox="0 0 192.150904895379 190.56546002781644" height="190.56546002781644" width="192.150904895379"><g><svg xmlns="http://www.w3.org/2000/svg" xmlns:xlink="http://www.w3.org/1999/xlink" version="1.1" x="0" y="0" viewBox="0.7534958055897398 0.8368608799048752 46.64803392980818 46.263139120095126" enable-background="new 0 0 48 48" xml:space="preserve" height="190.56546002781644" width="192.150904895379" class="icon-icon-0" data-fill-palette-color="accent" id="icon-0"></svg></g></svg></g><g></g></svg></g></svg></g><g><path d="M0 247.2v-247.2h395.52v247.2zM389.56 241.24v-235.28h-383.6v235.28z" fill="url(#a5a67b81-010a-4acb-b564-c592cbc80073)" fill-rule="nonzero" stroke="none" stroke-width="1" stroke-linecap="butt" stroke-linejoin="miter" stroke-miterlimit="10" stroke-dasharray="" stroke-dashoffset="0" font-family="none" font-weight="none" font-size="none" text-anchor="none" style="mix-blend-mode: normal" data-fill-palette-color="tertiary"></path></g></svg></g><defs></defs><mask id="04b0147b-b400-48f5-bf61-8855dd98cd59"><g id="SvgjsG1227"><svg viewBox="0 0 395.52 247.2" height="247.2" width="395.52"><g><svg></svg></g><g><svg viewBox="0 0 395.52 247.2" height="247.2" width="395.52"><g transform="matrix(1,0,0,1,121.92729413735792,37.08)"><svg viewBox="0 0 151.66541172528414 173.04" height="173.04" width="151.66541172528414"><g><svg viewBox="0 0 316.416 361.00930342097365" height="173.04" width="151.66541172528414"><g transform="matrix(1,0,0,1,0,223.1182324891238)"><svg viewBox="0 0 316.416 137.8910709318498" height="137.8910709318498" width="316.416"><g id="SvgjsG1226"><svg viewBox="0 0 316.416 137.8910709318498" height="137.8910709318498" width="316.416" id="SvgjsSvg1225"><g><svg viewBox="0 0 316.416 137.8910709318498" height="137.8910709318498" width="316.416"><g transform="matrix(1,0,0,1,0,0)"><svg width="316.416" viewBox="2.5 -37 107.84 47" height="137.8910709318498" data-palette-color="url(#2e54867d-d896-4865-acaf-4b55d7ab4840)"><path d="M20.75 0L20.75-4.2 20.55-4.2Q18.2 0.6 13 0.6L13 0.6Q10.6 0.6 8.65-0.35 6.7-1.3 5.33-3.05 3.95-4.8 3.23-7.3 2.5-9.8 2.5-12.9L2.5-12.9Q2.5-16 3.23-18.5 3.95-21 5.33-22.75 6.7-24.5 8.65-25.45 10.6-26.4 13-26.4L13-26.4Q15.7-26.4 17.63-25.23 19.55-24.05 20.55-21.6L20.55-21.6 20.75-21.6 20.75-37 24.75-37 24.75 0 20.75 0ZM14.1-3L14.1-3Q15.45-3 16.68-3.35 17.9-3.7 18.8-4.38 19.7-5.05 20.23-6.03 20.75-7 20.75-8.25L20.75-8.25 20.75-17.85Q20.75-18.9 20.23-19.83 19.7-20.75 18.8-21.4 17.9-22.05 16.68-22.43 15.45-22.8 14.1-22.8L14.1-22.8Q10.7-22.8 8.75-20.68 6.8-18.55 6.8-15.1L6.8-15.1 6.8-10.7Q6.8-7.25 8.75-5.13 10.7-3 14.1-3ZM54.25 0L52 0Q49.75 0 48.77-1.2 47.8-2.4 47.55-4.2L47.55-4.2 47.3-4.2Q46.45-1.8 44.5-0.6 42.55 0.6 39.85 0.6L39.85 0.6Q35.75 0.6 33.47-1.5 31.2-3.6 31.2-7.2L31.2-7.2Q31.2-10.85 33.87-12.8 36.55-14.75 42.2-14.75L42.2-14.75 47.3-14.75 47.3-17.3Q47.3-20.05 45.8-21.5 44.3-22.95 41.2-22.95L41.2-22.95Q38.85-22.95 37.27-21.9 35.7-20.85 34.65-19.1L34.65-19.1 32.25-21.35Q33.3-23.45 35.6-24.93 37.9-26.4 41.4-26.4L41.4-26.4Q46.1-26.4 48.7-24.1 51.3-21.8 51.3-17.7L51.3-17.7 51.3-3.5 54.25-3.5 54.25 0ZM40.5-2.8L40.5-2.8Q42-2.8 43.25-3.15 44.5-3.5 45.4-4.15 46.3-4.8 46.8-5.65 47.3-6.5 47.3-7.5L47.3-7.5 47.3-11.75 42-11.75Q38.55-11.75 36.97-10.75 35.4-9.75 35.4-7.85L35.4-7.85 35.4-6.8Q35.4-4.9 36.77-3.85 38.15-2.8 40.5-2.8ZM59.95 10L59.95-25.8 63.95-25.8 63.95-21.6 64.15-21.6Q65.15-24.05 67.07-25.23 69-26.4 71.7-26.4L71.7-26.4Q74.1-26.4 76.05-25.45 78-24.5 79.37-22.75 80.75-21 81.47-18.5 82.2-16 82.2-12.9L82.2-12.9Q82.2-9.8 81.47-7.3 80.75-4.8 79.37-3.05 78-1.3 76.05-0.35 74.1 0.6 71.7 0.6L71.7 0.6Q66.45 0.6 64.15-4.2L64.15-4.2 63.95-4.2 63.95 10 59.95 10ZM70.6-3L70.6-3Q74-3 75.95-5.13 77.9-7.25 77.9-10.7L77.9-10.7 77.9-15.1Q77.9-18.55 75.95-20.68 74-22.8 70.6-22.8L70.6-22.8Q69.25-22.8 68.02-22.43 66.8-22.05 65.9-21.4 65-20.75 64.47-19.83 63.95-18.9 63.95-17.85L63.95-17.85 63.95-8.25Q63.95-7 64.47-6.03 65-5.05 65.9-4.38 66.8-3.7 68.02-3.35 69.25-3 70.6-3ZM98.69 0.6L98.69 0.6Q96.09 0.6 93.94-0.35 91.79-1.3 90.27-3.08 88.74-4.85 87.89-7.33 87.04-9.8 87.04-12.9L87.04-12.9Q87.04-15.95 87.89-18.45 88.74-20.95 90.27-22.73 91.79-24.5 93.94-25.45 96.09-26.4 98.69-26.4L98.69-26.4Q101.29-26.4 103.42-25.45 105.54-24.5 107.09-22.73 108.64-20.95 109.49-18.45 110.34-15.95 110.34-12.9L110.34-12.9Q110.34-9.8 109.49-7.33 108.64-4.85 107.09-3.08 105.54-1.3 103.42-0.35 101.29 0.6 98.69 0.6ZM98.69-2.95L98.69-2.95Q101.94-2.95 103.99-4.95 106.04-6.95 106.04-11.05L106.04-11.05 106.04-14.75Q106.04-18.85 103.99-20.85 101.94-22.85 98.69-22.85L98.69-22.85Q95.44-22.85 93.39-20.85 91.34-18.85 91.34-14.75L91.34-14.75 91.34-11.05Q91.34-6.95 93.39-4.95 95.44-2.95 98.69-2.95Z" opacity="1" transform="matrix(1,0,0,1,0,0)" fill="white" class="wordmark-text-0" id="SvgjsPath1224"></path></svg></g></svg></g></svg></g></svg></g><g transform="matrix(1,0,0,1,62.1325475523105,0)"><svg viewBox="0 0 192.150904895379 190.56546002781644" height="190.56546002781644" width="192.150904895379"><g><svg xmlns="http://www.w3.org/2000/svg" xmlns:xlink="http://www.w3.org/1999/xlink" version="1.1" x="0" y="0" viewBox="0.7534958055897398 0.8368608799048752 46.64803392980818 46.263139120095126" enable-background="new 0 0 48 48" xml:space="preserve" height="190.56546002781644" width="192.150904895379" class="icon-icon-0" data-fill-palette-color="accent" id="SvgjsSvg1223"><g fill="black"><g fill="black"><g fill="black"><path fill="black" d="M0.9 2.4C1.3 11.2 1.3 20.1 1.3 29c0 2.1-0.8 11.5 2.9 11.7 8.7 0.6 17.6 0.1 26.3 0.1 2.4 0 14.7 1.5 15.6-1.8 2.1-7.3 1.1-16.1 0.8-23.6-0.2-4.2-0.4-8.5-0.6-12.7 0-0.9-0.4-1.1-1.2-1.3-3.4-1-8.2-0.1-11.7-0.2-4.5-0.1-9-0.1-13.5-0.2C15.4 1.1 10.9 1 6.4 1c-1.7 0-4.2-0.7-5.5 0.8C0.4 2.3 1.3 3.2 1.8 2.6c1.1-1.2 7-0.4 8.5-0.3 3.2 0 6.4 0.1 9.6 0.1 6.4 0.1 12.9 0.2 19.3 0.3 1.3 0 2.6 0 3.9 0.1 2.8 0 2.2 3.9 2.3 5.5 0.2 3.1 0.3 6.1 0.4 9.2 0.3 6.2 0.3 12.5-0.3 18.7-0.5 5.4-15.4 3.6-18.8 3.6-6.5 0-13 0-19.4 0-5.1 0-4.4-4.7-4.6-8.6-0.1-3.2 0-6.4 0-9.6 0-6.3-0.2-12.7-0.4-19C2.2 1.5 0.9 1.5 0.9 2.4L0.9 2.4z"></path></g></g><g fill="black"><g fill="black"><path fill="black" d="M17.2 10.2c-1.6 1.4-3.8 2.1-5.5 3.3-1 0.7-2.9 2.1-3.3 3.4-0.2 0.9 0.9 1.4 1.5 1.8 2.4 1.5 4.5 3.3 6.4 5.3 0.6 0.6 1.4-0.3 0.9-0.9-1.2-1.2-2.4-2.4-3.7-3.5-0.5-0.4-3.8-2.4-3.3-3.1 2.2-2.6 5.5-3.4 8-5.6C18.7 10.5 17.8 9.6 17.2 10.2L17.2 10.2z"></path></g></g><g fill="black"><g fill="black"><path fill="black" d="M27.2 6.7c-2.7 7.2-5.2 14.5-7.6 21.9-0.3 0.8 1 1.1 1.2 0.3 2.4-7.3 4.9-14.6 7.6-21.9C28.7 6.3 27.5 5.9 27.2 6.7L27.2 6.7z"></path></g></g><g fill="black"><g fill="black"><path fill="black" d="M29.3 11.6c1.5 1.1 2.9 2.3 4.4 3.4 0.9 0.7 1.8 1.4 2.6 2.1 1.3 1 0.7 0.9-0.4 1.7-2.4 1.7-4.3 3.9-6 6.3-0.5 0.7 0.6 1.3 1.1 0.6 1.4-2 3.1-3.8 5-5.4 0.4-0.3 2.7-1.5 2.7-2.4 0-1.2-1.5-1.9-2.3-2.5-2.1-1.6-4.1-3.2-6.2-4.8C29.5 10.2 28.6 11.1 29.3 11.6L29.3 11.6z"></path></g></g><g fill="black"><g fill="black"><path fill="black" d="M2.3 31.9c14.8 0.3 29.5 0.2 44.3-0.3 0.8 0 0.8-1.3 0-1.3-14.8 0.6-29.5 0.7-44.3 0.3C1.5 30.6 1.5 31.9 2.3 31.9L2.3 31.9z"></path></g></g><g fill="black"><g fill="black"><path fill="black" d="M21.1 36.6c1.1 0 2.2 0 3.3 0 0.8 0 0.8-1.3 0-1.3-1.1 0-2.2 0-3.3 0C20.3 35.4 20.3 36.6 21.1 36.6L21.1 36.6z"></path></g></g><g fill="black"><g fill="black"><path fill="black" d="M23.8 40.3c-0.3 1.8-0.4 3.6-0.2 5.5 0.1 0.8 1.3 0.8 1.3 0-0.2-1.7-0.2-3.4 0.1-5.1C25.2 39.8 24 39.5 23.8 40.3L23.8 40.3z"></path></g></g><g fill="black"><g fill="black"><path fill="black" d="M15.1 47.1c6.9 0 13.8 0 20.6 0 0.8 0 0.8-1.3 0-1.3-6.9 0-13.8 0-20.6 0C14.3 45.8 14.3 47.1 15.1 47.1L15.1 47.1z"></path></g></g></g></svg></g></svg></g><g></g></svg></g></svg></g><g><path d="M0 247.2v-247.2h395.52v247.2zM389.56 241.24v-235.28h-383.6v235.28z" fill="black" fill-rule="nonzero" stroke="none" stroke-width="1" stroke-linecap="butt" stroke-linejoin="miter" stroke-miterlimit="10" stroke-dasharray="" stroke-dashoffset="0" font-family="none" font-weight="none" font-size="none" text-anchor="none" style="mix-blend-mode: normal"></path></g></svg></g><defs><mask></mask></defs></svg><rect width="395.52" height="247.2" fill="black" stroke="none" visibility="hidden"></rect></g></mask><linearGradient x1="0" x2="1" y1="0.5" y2="0.5" id="2e54867d-d896-4865-acaf-4b55d7ab4840"><stop stop-color="#ffa62e" offset="0"></stop><stop stop-color="#f71b3d" offset="1"></stop></linearGradient><rect width="395.52" height="247.2" fill="url(#2e54867d-d896-4865-acaf-4b55d7ab4840)" mask="url(#04b0147b-b400-48f5-bf61-8855dd98cd59)" data-fill-palette-color="primary"></rect><mask id="5ebf5fb2-75bb-4072-abdf-6741ea47bd6b"><g id="SvgjsG1246"><svg viewBox="0 0 395.52 247.2" height="247.2" width="395.52"><g><svg></svg></g><g><svg viewBox="0 0 395.52 247.2" height="247.2" width="395.52"><g transform="matrix(1,0,0,1,121.92729413735792,37.08)"><svg viewBox="0 0 151.66541172528414 173.04" height="173.04" width="151.66541172528414"><g><svg viewBox="0 0 316.416 361.00930342097365" height="173.04" width="151.66541172528414"><g transform="matrix(1,0,0,1,0,223.1182324891238)"><svg viewBox="0 0 316.416 137.8910709318498" height="137.8910709318498" width="316.416"><g id="SvgjsG1245"><svg viewBox="0 0 316.416 137.8910709318498" height="137.8910709318498" width="316.416" id="SvgjsSvg1244"><g><svg viewBox="0 0 316.416 137.8910709318498" height="137.8910709318498" width="316.416"><g transform="matrix(1,0,0,1,0,0)"><svg width="316.416" viewBox="2.5 -37 107.84 47" height="137.8910709318498" data-palette-color="url(#2e54867d-d896-4865-acaf-4b55d7ab4840)"></svg></g></svg></g></svg></g></svg></g><g transform="matrix(1,0,0,1,62.1325475523105,0)"><svg viewBox="0 0 192.150904895379 190.56546002781644" height="190.56546002781644" width="192.150904895379"><g><svg xmlns="http://www.w3.org/2000/svg" xmlns:xlink="http://www.w3.org/1999/xlink" version="1.1" x="0" y="0" viewBox="0.7534958055897398 0.8368608799048752 46.64803392980818 46.263139120095126" enable-background="new 0 0 48 48" xml:space="preserve" height="190.56546002781644" width="192.150904895379" class="icon-icon-0" data-fill-palette-color="accent" id="SvgjsSvg1243"><g fill="white"><g fill="white"><g fill="white"><path fill="white" d="M0.9 2.4C1.3 11.2 1.3 20.1 1.3 29c0 2.1-0.8 11.5 2.9 11.7 8.7 0.6 17.6 0.1 26.3 0.1 2.4 0 14.7 1.5 15.6-1.8 2.1-7.3 1.1-16.1 0.8-23.6-0.2-4.2-0.4-8.5-0.6-12.7 0-0.9-0.4-1.1-1.2-1.3-3.4-1-8.2-0.1-11.7-0.2-4.5-0.1-9-0.1-13.5-0.2C15.4 1.1 10.9 1 6.4 1c-1.7 0-4.2-0.7-5.5 0.8C0.4 2.3 1.3 3.2 1.8 2.6c1.1-1.2 7-0.4 8.5-0.3 3.2 0 6.4 0.1 9.6 0.1 6.4 0.1 12.9 0.2 19.3 0.3 1.3 0 2.6 0 3.9 0.1 2.8 0 2.2 3.9 2.3 5.5 0.2 3.1 0.3 6.1 0.4 9.2 0.3 6.2 0.3 12.5-0.3 18.7-0.5 5.4-15.4 3.6-18.8 3.6-6.5 0-13 0-19.4 0-5.1 0-4.4-4.7-4.6-8.6-0.1-3.2 0-6.4 0-9.6 0-6.3-0.2-12.7-0.4-19C2.2 1.5 0.9 1.5 0.9 2.4L0.9 2.4z"></path></g></g><g fill="white"><g fill="white"><path fill="white" d="M17.2 10.2c-1.6 1.4-3.8 2.1-5.5 3.3-1 0.7-2.9 2.1-3.3 3.4-0.2 0.9 0.9 1.4 1.5 1.8 2.4 1.5 4.5 3.3 6.4 5.3 0.6 0.6 1.4-0.3 0.9-0.9-1.2-1.2-2.4-2.4-3.7-3.5-0.5-0.4-3.8-2.4-3.3-3.1 2.2-2.6 5.5-3.4 8-5.6C18.7 10.5 17.8 9.6 17.2 10.2L17.2 10.2z"></path></g></g><g fill="white"><g fill="white"><path fill="white" d="M27.2 6.7c-2.7 7.2-5.2 14.5-7.6 21.9-0.3 0.8 1 1.1 1.2 0.3 2.4-7.3 4.9-14.6 7.6-21.9C28.7 6.3 27.5 5.9 27.2 6.7L27.2 6.7z"></path></g></g><g fill="white"><g fill="white"><path fill="white" d="M29.3 11.6c1.5 1.1 2.9 2.3 4.4 3.4 0.9 0.7 1.8 1.4 2.6 2.1 1.3 1 0.7 0.9-0.4 1.7-2.4 1.7-4.3 3.9-6 6.3-0.5 0.7 0.6 1.3 1.1 0.6 1.4-2 3.1-3.8 5-5.4 0.4-0.3 2.7-1.5 2.7-2.4 0-1.2-1.5-1.9-2.3-2.5-2.1-1.6-4.1-3.2-6.2-4.8C29.5 10.2 28.6 11.1 29.3 11.6L29.3 11.6z"></path></g></g><g fill="white"><g fill="white"><path fill="white" d="M2.3 31.9c14.8 0.3 29.5 0.2 44.3-0.3 0.8 0 0.8-1.3 0-1.3-14.8 0.6-29.5 0.7-44.3 0.3C1.5 30.6 1.5 31.9 2.3 31.9L2.3 31.9z"></path></g></g><g fill="white"><g fill="white"><path fill="white" d="M21.1 36.6c1.1 0 2.2 0 3.3 0 0.8 0 0.8-1.3 0-1.3-1.1 0-2.2 0-3.3 0C20.3 35.4 20.3 36.6 21.1 36.6L21.1 36.6z"></path></g></g><g fill="white"><g fill="white"><path fill="white" d="M23.8 40.3c-0.3 1.8-0.4 3.6-0.2 5.5 0.1 0.8 1.3 0.8 1.3 0-0.2-1.7-0.2-3.4 0.1-5.1C25.2 39.8 24 39.5 23.8 40.3L23.8 40.3z"></path></g></g><g fill="white"><g fill="white"><path fill="white" d="M15.1 47.1c6.9 0 13.8 0 20.6 0 0.8 0 0.8-1.3 0-1.3-6.9 0-13.8 0-20.6 0C14.3 45.8 14.3 47.1 15.1 47.1L15.1 47.1z"></path></g></g></g></svg></g></svg></g><g></g></svg></g></svg></g><g><path d="M0 247.2v-247.2h395.52v247.2zM389.56 241.24v-235.28h-383.6v235.28z" fill="black" fill-rule="nonzero" stroke="none" stroke-width="1" stroke-linecap="butt" stroke-linejoin="miter" stroke-miterlimit="10" stroke-dasharray="" stroke-dashoffset="0" font-family="none" font-weight="none" font-size="none" text-anchor="none" style="mix-blend-mode: normal"></path></g></svg></g><defs><mask></mask></defs><mask><g id="SvgjsG1242"><svg viewBox="0 0 395.52 247.2" height="247.2" width="395.52"><g><svg></svg></g><g><svg viewBox="0 0 395.52 247.2" height="247.2" width="395.52"><g transform="matrix(1,0,0,1,121.92729413735792,37.08)"><svg viewBox="0 0 151.66541172528414 173.04" height="173.04" width="151.66541172528414"><g><svg viewBox="0 0 316.416 361.00930342097365" height="173.04" width="151.66541172528414"><g transform="matrix(1,0,0,1,0,223.1182324891238)"><svg viewBox="0 0 316.416 137.8910709318498" height="137.8910709318498" width="316.416"><g id="SvgjsG1241"><svg viewBox="0 0 316.416 137.8910709318498" height="137.8910709318498" width="316.416" id="SvgjsSvg1240"><g><svg viewBox="0 0 316.416 137.8910709318498" height="137.8910709318498" width="316.416"><g transform="matrix(1,0,0,1,0,0)"><svg width="316.416" viewBox="2.5 -37 107.84 47" height="137.8910709318498" data-palette-color="url(#2e54867d-d896-4865-acaf-4b55d7ab4840)"><path d="M20.75 0L20.75-4.2 20.55-4.2Q18.2 0.6 13 0.6L13 0.6Q10.6 0.6 8.65-0.35 6.7-1.3 5.33-3.05 3.95-4.8 3.23-7.3 2.5-9.8 2.5-12.9L2.5-12.9Q2.5-16 3.23-18.5 3.95-21 5.33-22.75 6.7-24.5 8.65-25.45 10.6-26.4 13-26.4L13-26.4Q15.7-26.4 17.63-25.23 19.55-24.05 20.55-21.6L20.55-21.6 20.75-21.6 20.75-37 24.75-37 24.75 0 20.75 0ZM14.1-3L14.1-3Q15.45-3 16.68-3.35 17.9-3.7 18.8-4.38 19.7-5.05 20.23-6.03 20.75-7 20.75-8.25L20.75-8.25 20.75-17.85Q20.75-18.9 20.23-19.83 19.7-20.75 18.8-21.4 17.9-22.05 16.68-22.43 15.45-22.8 14.1-22.8L14.1-22.8Q10.7-22.8 8.75-20.68 6.8-18.55 6.8-15.1L6.8-15.1 6.8-10.7Q6.8-7.25 8.75-5.13 10.7-3 14.1-3ZM54.25 0L52 0Q49.75 0 48.77-1.2 47.8-2.4 47.55-4.2L47.55-4.2 47.3-4.2Q46.45-1.8 44.5-0.6 42.55 0.6 39.85 0.6L39.85 0.6Q35.75 0.6 33.47-1.5 31.2-3.6 31.2-7.2L31.2-7.2Q31.2-10.85 33.87-12.8 36.55-14.75 42.2-14.75L42.2-14.75 47.3-14.75 47.3-17.3Q47.3-20.05 45.8-21.5 44.3-22.95 41.2-22.95L41.2-22.95Q38.85-22.95 37.27-21.9 35.7-20.85 34.65-19.1L34.65-19.1 32.25-21.35Q33.3-23.45 35.6-24.93 37.9-26.4 41.4-26.4L41.4-26.4Q46.1-26.4 48.7-24.1 51.3-21.8 51.3-17.7L51.3-17.7 51.3-3.5 54.25-3.5 54.25 0ZM40.5-2.8L40.5-2.8Q42-2.8 43.25-3.15 44.5-3.5 45.4-4.15 46.3-4.8 46.8-5.65 47.3-6.5 47.3-7.5L47.3-7.5 47.3-11.75 42-11.75Q38.55-11.75 36.97-10.75 35.4-9.75 35.4-7.85L35.4-7.85 35.4-6.8Q35.4-4.9 36.77-3.85 38.15-2.8 40.5-2.8ZM59.95 10L59.95-25.8 63.95-25.8 63.95-21.6 64.15-21.6Q65.15-24.05 67.07-25.23 69-26.4 71.7-26.4L71.7-26.4Q74.1-26.4 76.05-25.45 78-24.5 79.37-22.75 80.75-21 81.47-18.5 82.2-16 82.2-12.9L82.2-12.9Q82.2-9.8 81.47-7.3 80.75-4.8 79.37-3.05 78-1.3 76.05-0.35 74.1 0.6 71.7 0.6L71.7 0.6Q66.45 0.6 64.15-4.2L64.15-4.2 63.95-4.2 63.95 10 59.95 10ZM70.6-3L70.6-3Q74-3 75.95-5.13 77.9-7.25 77.9-10.7L77.9-10.7 77.9-15.1Q77.9-18.55 75.95-20.68 74-22.8 70.6-22.8L70.6-22.8Q69.25-22.8 68.02-22.43 66.8-22.05 65.9-21.4 65-20.75 64.47-19.83 63.95-18.9 63.95-17.85L63.95-17.85 63.95-8.25Q63.95-7 64.47-6.03 65-5.05 65.9-4.38 66.8-3.7 68.02-3.35 69.25-3 70.6-3ZM98.69 0.6L98.69 0.6Q96.09 0.6 93.94-0.35 91.79-1.3 90.27-3.08 88.74-4.85 87.89-7.33 87.04-9.8 87.04-12.9L87.04-12.9Q87.04-15.95 87.89-18.45 88.74-20.95 90.27-22.73 91.79-24.5 93.94-25.45 96.09-26.4 98.69-26.4L98.69-26.4Q101.29-26.4 103.42-25.45 105.54-24.5 107.09-22.73 108.64-20.95 109.49-18.45 110.34-15.95 110.34-12.9L110.34-12.9Q110.34-9.8 109.49-7.33 108.64-4.85 107.09-3.08 105.54-1.3 103.42-0.35 101.29 0.6 98.69 0.6ZM98.69-2.95L98.69-2.95Q101.94-2.95 103.99-4.95 106.04-6.95 106.04-11.05L106.04-11.05 106.04-14.75Q106.04-18.85 103.99-20.85 101.94-22.85 98.69-22.85L98.69-22.85Q95.44-22.85 93.39-20.85 91.34-18.85 91.34-14.75L91.34-14.75 91.34-11.05Q91.34-6.95 93.39-4.95 95.44-2.95 98.69-2.95Z" opacity="1" transform="matrix(1,0,0,1,0,0)" fill="black" class="wordmark-text-0" id="SvgjsPath1239"></path></svg></g></svg></g></svg></g></svg></g><g transform="matrix(1,0,0,1,62.1325475523105,0)"><svg viewBox="0 0 192.150904895379 190.56546002781644" height="190.56546002781644" width="192.150904895379"><g><svg xmlns="http://www.w3.org/2000/svg" xmlns:xlink="http://www.w3.org/1999/xlink" version="1.1" x="0" y="0" viewBox="0.7534958055897398 0.8368608799048752 46.64803392980818 46.263139120095126" enable-background="new 0 0 48 48" xml:space="preserve" height="190.56546002781644" width="192.150904895379" class="icon-icon-0" data-fill-palette-color="accent" id="SvgjsSvg1238"><g fill="black"><g fill="black"><g fill="black"><path fill="black" d="M0.9 2.4C1.3 11.2 1.3 20.1 1.3 29c0 2.1-0.8 11.5 2.9 11.7 8.7 0.6 17.6 0.1 26.3 0.1 2.4 0 14.7 1.5 15.6-1.8 2.1-7.3 1.1-16.1 0.8-23.6-0.2-4.2-0.4-8.5-0.6-12.7 0-0.9-0.4-1.1-1.2-1.3-3.4-1-8.2-0.1-11.7-0.2-4.5-0.1-9-0.1-13.5-0.2C15.4 1.1 10.9 1 6.4 1c-1.7 0-4.2-0.7-5.5 0.8C0.4 2.3 1.3 3.2 1.8 2.6c1.1-1.2 7-0.4 8.5-0.3 3.2 0 6.4 0.1 9.6 0.1 6.4 0.1 12.9 0.2 19.3 0.3 1.3 0 2.6 0 3.9 0.1 2.8 0 2.2 3.9 2.3 5.5 0.2 3.1 0.3 6.1 0.4 9.2 0.3 6.2 0.3 12.5-0.3 18.7-0.5 5.4-15.4 3.6-18.8 3.6-6.5 0-13 0-19.4 0-5.1 0-4.4-4.7-4.6-8.6-0.1-3.2 0-6.4 0-9.6 0-6.3-0.2-12.7-0.4-19C2.2 1.5 0.9 1.5 0.9 2.4L0.9 2.4z"></path></g></g><g fill="black"><g fill="black"><path fill="black" d="M17.2 10.2c-1.6 1.4-3.8 2.1-5.5 3.3-1 0.7-2.9 2.1-3.3 3.4-0.2 0.9 0.9 1.4 1.5 1.8 2.4 1.5 4.5 3.3 6.4 5.3 0.6 0.6 1.4-0.3 0.9-0.9-1.2-1.2-2.4-2.4-3.7-3.5-0.5-0.4-3.8-2.4-3.3-3.1 2.2-2.6 5.5-3.4 8-5.6C18.7 10.5 17.8 9.6 17.2 10.2L17.2 10.2z"></path></g></g><g fill="black"><g fill="black"><path fill="black" d="M27.2 6.7c-2.7 7.2-5.2 14.5-7.6 21.9-0.3 0.8 1 1.1 1.2 0.3 2.4-7.3 4.9-14.6 7.6-21.9C28.7 6.3 27.5 5.9 27.2 6.7L27.2 6.7z"></path></g></g><g fill="black"><g fill="black"><path fill="black" d="M29.3 11.6c1.5 1.1 2.9 2.3 4.4 3.4 0.9 0.7 1.8 1.4 2.6 2.1 1.3 1 0.7 0.9-0.4 1.7-2.4 1.7-4.3 3.9-6 6.3-0.5 0.7 0.6 1.3 1.1 0.6 1.4-2 3.1-3.8 5-5.4 0.4-0.3 2.7-1.5 2.7-2.4 0-1.2-1.5-1.9-2.3-2.5-2.1-1.6-4.1-3.2-6.2-4.8C29.5 10.2 28.6 11.1 29.3 11.6L29.3 11.6z"></path></g></g><g fill="black"><g fill="black"><path fill="black" d="M2.3 31.9c14.8 0.3 29.5 0.2 44.3-0.3 0.8 0 0.8-1.3 0-1.3-14.8 0.6-29.5 0.7-44.3 0.3C1.5 30.6 1.5 31.9 2.3 31.9L2.3 31.9z"></path></g></g><g fill="black"><g fill="black"><path fill="black" d="M21.1 36.6c1.1 0 2.2 0 3.3 0 0.8 0 0.8-1.3 0-1.3-1.1 0-2.2 0-3.3 0C20.3 35.4 20.3 36.6 21.1 36.6L21.1 36.6z"></path></g></g><g fill="black"><g fill="black"><path fill="black" d="M23.8 40.3c-0.3 1.8-0.4 3.6-0.2 5.5 0.1 0.8 1.3 0.8 1.3 0-0.2-1.7-0.2-3.4 0.1-5.1C25.2 39.8 24 39.5 23.8 40.3L23.8 40.3z"></path></g></g><g fill="black"><g fill="black"><path fill="black" d="M15.1 47.1c6.9 0 13.8 0 20.6 0 0.8 0 0.8-1.3 0-1.3-6.9 0-13.8 0-20.6 0C14.3 45.8 14.3 47.1 15.1 47.1L15.1 47.1z"></path></g></g></g></svg></g></svg></g><g></g></svg></g></svg></g><g><path d="M0 247.2v-247.2h395.52v247.2zM389.56 241.24v-235.28h-383.6v235.28z" fill="black" fill-rule="nonzero" stroke="none" stroke-width="1" stroke-linecap="butt" stroke-linejoin="miter" stroke-miterlimit="10" stroke-dasharray="" stroke-dashoffset="0" font-family="none" font-weight="none" font-size="none" text-anchor="none" style="mix-blend-mode: normal"></path></g></svg></g><defs><mask></mask></defs></svg><rect width="395.52" height="247.2" fill="black" stroke="none" visibility="hidden"></rect></g></mask></svg><rect width="395.52" height="247.2" fill="black" stroke="none" visibility="hidden"></rect></g></mask><linearGradient x1="0" x2="1" y1="0.5" y2="0.5" id="fe0a0daf-7f6e-4d1c-80aa-d7b8872f8172"><stop stop-color="#ffa62e" offset="0"></stop><stop stop-color="#f71b3d" offset="1"></stop></linearGradient><rect width="395.52" height="247.2" fill="url(#fe0a0daf-7f6e-4d1c-80aa-d7b8872f8172)" mask="url(#5ebf5fb2-75bb-4072-abdf-6741ea47bd6b)" data-fill-palette-color="accent"></rect><mask id="ae2f7c31-7dbb-46c1-ae9a-2dfa4cb4dba8"><g id="SvgjsG1264"><svg viewBox="0 0 395.52 247.2" height="247.2" width="395.52"><g><svg></svg></g><g><svg viewBox="0 0 395.52 247.2" height="247.2" width="395.52"><g transform="matrix(1,0,0,1,121.92729413735792,37.08)"><svg viewBox="0 0 151.66541172528414 173.04" height="173.04" width="151.66541172528414"><g><svg viewBox="0 0 316.416 361.00930342097365" height="173.04" width="151.66541172528414"><g transform="matrix(1,0,0,1,0,223.1182324891238)"><svg viewBox="0 0 316.416 137.8910709318498" height="137.8910709318498" width="316.416"><g id="SvgjsG1263"><svg viewBox="0 0 316.416 137.8910709318498" height="137.8910709318498" width="316.416" id="SvgjsSvg1262"><g><svg viewBox="0 0 316.416 137.8910709318498" height="137.8910709318498" width="316.416"><g transform="matrix(1,0,0,1,0,0)"><svg width="316.416" viewBox="2.5 -37 107.84 47" height="137.8910709318498" data-palette-color="url(#2e54867d-d896-4865-acaf-4b55d7ab4840)"></svg></g></svg></g></svg></g></svg></g><g transform="matrix(1,0,0,1,62.1325475523105,0)"><svg viewBox="0 0 192.150904895379 190.56546002781644" height="190.56546002781644" width="192.150904895379"><g><svg xmlns="http://www.w3.org/2000/svg" xmlns:xlink="http://www.w3.org/1999/xlink" version="1.1" x="0" y="0" viewBox="0.7534958055897398 0.8368608799048752 46.64803392980818 46.263139120095126" enable-background="new 0 0 48 48" xml:space="preserve" height="190.56546002781644" width="192.150904895379" class="icon-icon-0" data-fill-palette-color="accent" id="SvgjsSvg1261"></svg></g></svg></g><g></g></svg></g></svg></g><g><path d="M0 247.2v-247.2h395.52v247.2zM389.56 241.24v-235.28h-383.6v235.28z" fill="white" fill-rule="nonzero" stroke="none" stroke-width="1" stroke-linecap="butt" stroke-linejoin="miter" stroke-miterlimit="10" stroke-dasharray="" stroke-dashoffset="0" font-family="none" font-weight="none" font-size="none" text-anchor="none" style="mix-blend-mode: normal"></path></g></svg></g><defs><mask></mask></defs><mask><g id="SvgjsG1260"><svg viewBox="0 0 395.52 247.2" height="247.2" width="395.52"><g><svg></svg></g><g><svg viewBox="0 0 395.52 247.2" height="247.2" width="395.52"><g transform="matrix(1,0,0,1,121.92729413735792,37.08)"><svg viewBox="0 0 151.66541172528414 173.04" height="173.04" width="151.66541172528414"><g><svg viewBox="0 0 316.416 361.00930342097365" height="173.04" width="151.66541172528414"><g transform="matrix(1,0,0,1,0,223.1182324891238)"><svg viewBox="0 0 316.416 137.8910709318498" height="137.8910709318498" width="316.416"><g id="SvgjsG1259"><svg viewBox="0 0 316.416 137.8910709318498" height="137.8910709318498" width="316.416" id="SvgjsSvg1258"><g><svg viewBox="0 0 316.416 137.8910709318498" height="137.8910709318498" width="316.416"><g transform="matrix(1,0,0,1,0,0)"><svg width="316.416" viewBox="2.5 -37 107.84 47" height="137.8910709318498" data-palette-color="url(#2e54867d-d896-4865-acaf-4b55d7ab4840)"><path d="M20.75 0L20.75-4.2 20.55-4.2Q18.2 0.6 13 0.6L13 0.6Q10.6 0.6 8.65-0.35 6.7-1.3 5.33-3.05 3.95-4.8 3.23-7.3 2.5-9.8 2.5-12.9L2.5-12.9Q2.5-16 3.23-18.5 3.95-21 5.33-22.75 6.7-24.5 8.65-25.45 10.6-26.4 13-26.4L13-26.4Q15.7-26.4 17.63-25.23 19.55-24.05 20.55-21.6L20.55-21.6 20.75-21.6 20.75-37 24.75-37 24.75 0 20.75 0ZM14.1-3L14.1-3Q15.45-3 16.68-3.35 17.9-3.7 18.8-4.38 19.7-5.05 20.23-6.03 20.75-7 20.75-8.25L20.75-8.25 20.75-17.85Q20.75-18.9 20.23-19.83 19.7-20.75 18.8-21.4 17.9-22.05 16.68-22.43 15.45-22.8 14.1-22.8L14.1-22.8Q10.7-22.8 8.75-20.68 6.8-18.55 6.8-15.1L6.8-15.1 6.8-10.7Q6.8-7.25 8.75-5.13 10.7-3 14.1-3ZM54.25 0L52 0Q49.75 0 48.77-1.2 47.8-2.4 47.55-4.2L47.55-4.2 47.3-4.2Q46.45-1.8 44.5-0.6 42.55 0.6 39.85 0.6L39.85 0.6Q35.75 0.6 33.47-1.5 31.2-3.6 31.2-7.2L31.2-7.2Q31.2-10.85 33.87-12.8 36.55-14.75 42.2-14.75L42.2-14.75 47.3-14.75 47.3-17.3Q47.3-20.05 45.8-21.5 44.3-22.95 41.2-22.95L41.2-22.95Q38.85-22.95 37.27-21.9 35.7-20.85 34.65-19.1L34.65-19.1 32.25-21.35Q33.3-23.45 35.6-24.93 37.9-26.4 41.4-26.4L41.4-26.4Q46.1-26.4 48.7-24.1 51.3-21.8 51.3-17.7L51.3-17.7 51.3-3.5 54.25-3.5 54.25 0ZM40.5-2.8L40.5-2.8Q42-2.8 43.25-3.15 44.5-3.5 45.4-4.15 46.3-4.8 46.8-5.65 47.3-6.5 47.3-7.5L47.3-7.5 47.3-11.75 42-11.75Q38.55-11.75 36.97-10.75 35.4-9.75 35.4-7.85L35.4-7.85 35.4-6.8Q35.4-4.9 36.77-3.85 38.15-2.8 40.5-2.8ZM59.95 10L59.95-25.8 63.95-25.8 63.95-21.6 64.15-21.6Q65.15-24.05 67.07-25.23 69-26.4 71.7-26.4L71.7-26.4Q74.1-26.4 76.05-25.45 78-24.5 79.37-22.75 80.75-21 81.47-18.5 82.2-16 82.2-12.9L82.2-12.9Q82.2-9.8 81.47-7.3 80.75-4.8 79.37-3.05 78-1.3 76.05-0.35 74.1 0.6 71.7 0.6L71.7 0.6Q66.45 0.6 64.15-4.2L64.15-4.2 63.95-4.2 63.95 10 59.95 10ZM70.6-3L70.6-3Q74-3 75.95-5.13 77.9-7.25 77.9-10.7L77.9-10.7 77.9-15.1Q77.9-18.55 75.95-20.68 74-22.8 70.6-22.8L70.6-22.8Q69.25-22.8 68.02-22.43 66.8-22.05 65.9-21.4 65-20.75 64.47-19.83 63.95-18.9 63.95-17.85L63.95-17.85 63.95-8.25Q63.95-7 64.47-6.03 65-5.05 65.9-4.38 66.8-3.7 68.02-3.35 69.25-3 70.6-3ZM98.69 0.6L98.69 0.6Q96.09 0.6 93.94-0.35 91.79-1.3 90.27-3.08 88.74-4.85 87.89-7.33 87.04-9.8 87.04-12.9L87.04-12.9Q87.04-15.95 87.89-18.45 88.74-20.95 90.27-22.73 91.79-24.5 93.94-25.45 96.09-26.4 98.69-26.4L98.69-26.4Q101.29-26.4 103.42-25.45 105.54-24.5 107.09-22.73 108.64-20.95 109.49-18.45 110.34-15.95 110.34-12.9L110.34-12.9Q110.34-9.8 109.49-7.33 108.64-4.85 107.09-3.08 105.54-1.3 103.42-0.35 101.29 0.6 98.69 0.6ZM98.69-2.95L98.69-2.95Q101.94-2.95 103.99-4.95 106.04-6.95 106.04-11.05L106.04-11.05 106.04-14.75Q106.04-18.85 103.99-20.85 101.94-22.85 98.69-22.85L98.69-22.85Q95.44-22.85 93.39-20.85 91.34-18.85 91.34-14.75L91.34-14.75 91.34-11.05Q91.34-6.95 93.39-4.95 95.44-2.95 98.69-2.95Z" opacity="1" transform="matrix(1,0,0,1,0,0)" fill="black" class="wordmark-text-0" id="SvgjsPath1257"></path></svg></g></svg></g></svg></g></svg></g><g transform="matrix(1,0,0,1,62.1325475523105,0)"><svg viewBox="0 0 192.150904895379 190.56546002781644" height="190.56546002781644" width="192.150904895379"><g><svg xmlns="http://www.w3.org/2000/svg" xmlns:xlink="http://www.w3.org/1999/xlink" version="1.1" x="0" y="0" viewBox="0.7534958055897398 0.8368608799048752 46.64803392980818 46.263139120095126" enable-background="new 0 0 48 48" xml:space="preserve" height="190.56546002781644" width="192.150904895379" class="icon-icon-0" data-fill-palette-color="accent" id="SvgjsSvg1256"><g fill="black"><g fill="black"><g fill="black"><path fill="black" d="M0.9 2.4C1.3 11.2 1.3 20.1 1.3 29c0 2.1-0.8 11.5 2.9 11.7 8.7 0.6 17.6 0.1 26.3 0.1 2.4 0 14.7 1.5 15.6-1.8 2.1-7.3 1.1-16.1 0.8-23.6-0.2-4.2-0.4-8.5-0.6-12.7 0-0.9-0.4-1.1-1.2-1.3-3.4-1-8.2-0.1-11.7-0.2-4.5-0.1-9-0.1-13.5-0.2C15.4 1.1 10.9 1 6.4 1c-1.7 0-4.2-0.7-5.5 0.8C0.4 2.3 1.3 3.2 1.8 2.6c1.1-1.2 7-0.4 8.5-0.3 3.2 0 6.4 0.1 9.6 0.1 6.4 0.1 12.9 0.2 19.3 0.3 1.3 0 2.6 0 3.9 0.1 2.8 0 2.2 3.9 2.3 5.5 0.2 3.1 0.3 6.1 0.4 9.2 0.3 6.2 0.3 12.5-0.3 18.7-0.5 5.4-15.4 3.6-18.8 3.6-6.5 0-13 0-19.4 0-5.1 0-4.4-4.7-4.6-8.6-0.1-3.2 0-6.4 0-9.6 0-6.3-0.2-12.7-0.4-19C2.2 1.5 0.9 1.5 0.9 2.4L0.9 2.4z"></path></g></g><g fill="black"><g fill="black"><path fill="black" d="M17.2 10.2c-1.6 1.4-3.8 2.1-5.5 3.3-1 0.7-2.9 2.1-3.3 3.4-0.2 0.9 0.9 1.4 1.5 1.8 2.4 1.5 4.5 3.3 6.4 5.3 0.6 0.6 1.4-0.3 0.9-0.9-1.2-1.2-2.4-2.4-3.7-3.5-0.5-0.4-3.8-2.4-3.3-3.1 2.2-2.6 5.5-3.4 8-5.6C18.7 10.5 17.8 9.6 17.2 10.2L17.2 10.2z"></path></g></g><g fill="black"><g fill="black"><path fill="black" d="M27.2 6.7c-2.7 7.2-5.2 14.5-7.6 21.9-0.3 0.8 1 1.1 1.2 0.3 2.4-7.3 4.9-14.6 7.6-21.9C28.7 6.3 27.5 5.9 27.2 6.7L27.2 6.7z"></path></g></g><g fill="black"><g fill="black"><path fill="black" d="M29.3 11.6c1.5 1.1 2.9 2.3 4.4 3.4 0.9 0.7 1.8 1.4 2.6 2.1 1.3 1 0.7 0.9-0.4 1.7-2.4 1.7-4.3 3.9-6 6.3-0.5 0.7 0.6 1.3 1.1 0.6 1.4-2 3.1-3.8 5-5.4 0.4-0.3 2.7-1.5 2.7-2.4 0-1.2-1.5-1.9-2.3-2.5-2.1-1.6-4.1-3.2-6.2-4.8C29.5 10.2 28.6 11.1 29.3 11.6L29.3 11.6z"></path></g></g><g fill="black"><g fill="black"><path fill="black" d="M2.3 31.9c14.8 0.3 29.5 0.2 44.3-0.3 0.8 0 0.8-1.3 0-1.3-14.8 0.6-29.5 0.7-44.3 0.3C1.5 30.6 1.5 31.9 2.3 31.9L2.3 31.9z"></path></g></g><g fill="black"><g fill="black"><path fill="black" d="M21.1 36.6c1.1 0 2.2 0 3.3 0 0.8 0 0.8-1.3 0-1.3-1.1 0-2.2 0-3.3 0C20.3 35.4 20.3 36.6 21.1 36.6L21.1 36.6z"></path></g></g><g fill="black"><g fill="black"><path fill="black" d="M23.8 40.3c-0.3 1.8-0.4 3.6-0.2 5.5 0.1 0.8 1.3 0.8 1.3 0-0.2-1.7-0.2-3.4 0.1-5.1C25.2 39.8 24 39.5 23.8 40.3L23.8 40.3z"></path></g></g><g fill="black"><g fill="black"><path fill="black" d="M15.1 47.1c6.9 0 13.8 0 20.6 0 0.8 0 0.8-1.3 0-1.3-6.9 0-13.8 0-20.6 0C14.3 45.8 14.3 47.1 15.1 47.1L15.1 47.1z"></path></g></g></g></svg></g></svg></g><g></g></svg></g></svg></g><g><path d="M0 247.2v-247.2h395.52v247.2zM389.56 241.24v-235.28h-383.6v235.28z" fill="black" fill-rule="nonzero" stroke="none" stroke-width="1" stroke-linecap="butt" stroke-linejoin="miter" stroke-miterlimit="10" stroke-dasharray="" stroke-dashoffset="0" font-family="none" font-weight="none" font-size="none" text-anchor="none" style="mix-blend-mode: normal"></path></g></svg></g><defs><mask></mask></defs></svg><rect width="395.52" height="247.2" fill="black" stroke="none" visibility="hidden"></rect></g></mask><mask><g id="SvgjsG1255"><svg viewBox="0 0 395.52 247.2" height="247.2" width="395.52"><g><svg></svg></g><g><svg viewBox="0 0 395.52 247.2" height="247.2" width="395.52"><g transform="matrix(1,0,0,1,121.92729413735792,37.08)"><svg viewBox="0 0 151.66541172528414 173.04" height="173.04" width="151.66541172528414"><g><svg viewBox="0 0 316.416 361.00930342097365" height="173.04" width="151.66541172528414"><g transform="matrix(1,0,0,1,0,223.1182324891238)"><svg viewBox="0 0 316.416 137.8910709318498" height="137.8910709318498" width="316.416"><g id="SvgjsG1254"><svg viewBox="0 0 316.416 137.8910709318498" height="137.8910709318498" width="316.416" id="SvgjsSvg1253"><g><svg viewBox="0 0 316.416 137.8910709318498" height="137.8910709318498" width="316.416"><g transform="matrix(1,0,0,1,0,0)"><svg width="316.416" viewBox="2.5 -37 107.84 47" height="137.8910709318498" data-palette-color="url(#2e54867d-d896-4865-acaf-4b55d7ab4840)"></svg></g></svg></g></svg></g></svg></g><g transform="matrix(1,0,0,1,62.1325475523105,0)"><svg viewBox="0 0 192.150904895379 190.56546002781644" height="190.56546002781644" width="192.150904895379"><g><svg xmlns="http://www.w3.org/2000/svg" xmlns:xlink="http://www.w3.org/1999/xlink" version="1.1" x="0" y="0" viewBox="0.7534958055897398 0.8368608799048752 46.64803392980818 46.263139120095126" enable-background="new 0 0 48 48" xml:space="preserve" height="190.56546002781644" width="192.150904895379" class="icon-icon-0" data-fill-palette-color="accent" id="SvgjsSvg1252"><g fill="black"><g fill="black"><g fill="black"><path fill="black" d="M0.9 2.4C1.3 11.2 1.3 20.1 1.3 29c0 2.1-0.8 11.5 2.9 11.7 8.7 0.6 17.6 0.1 26.3 0.1 2.4 0 14.7 1.5 15.6-1.8 2.1-7.3 1.1-16.1 0.8-23.6-0.2-4.2-0.4-8.5-0.6-12.7 0-0.9-0.4-1.1-1.2-1.3-3.4-1-8.2-0.1-11.7-0.2-4.5-0.1-9-0.1-13.5-0.2C15.4 1.1 10.9 1 6.4 1c-1.7 0-4.2-0.7-5.5 0.8C0.4 2.3 1.3 3.2 1.8 2.6c1.1-1.2 7-0.4 8.5-0.3 3.2 0 6.4 0.1 9.6 0.1 6.4 0.1 12.9 0.2 19.3 0.3 1.3 0 2.6 0 3.9 0.1 2.8 0 2.2 3.9 2.3 5.5 0.2 3.1 0.3 6.1 0.4 9.2 0.3 6.2 0.3 12.5-0.3 18.7-0.5 5.4-15.4 3.6-18.8 3.6-6.5 0-13 0-19.4 0-5.1 0-4.4-4.7-4.6-8.6-0.1-3.2 0-6.4 0-9.6 0-6.3-0.2-12.7-0.4-19C2.2 1.5 0.9 1.5 0.9 2.4L0.9 2.4z"></path></g></g><g fill="black"><g fill="black"><path fill="black" d="M17.2 10.2c-1.6 1.4-3.8 2.1-5.5 3.3-1 0.7-2.9 2.1-3.3 3.4-0.2 0.9 0.9 1.4 1.5 1.8 2.4 1.5 4.5 3.3 6.4 5.3 0.6 0.6 1.4-0.3 0.9-0.9-1.2-1.2-2.4-2.4-3.7-3.5-0.5-0.4-3.8-2.4-3.3-3.1 2.2-2.6 5.5-3.4 8-5.6C18.7 10.5 17.8 9.6 17.2 10.2L17.2 10.2z"></path></g></g><g fill="black"><g fill="black"><path fill="black" d="M27.2 6.7c-2.7 7.2-5.2 14.5-7.6 21.9-0.3 0.8 1 1.1 1.2 0.3 2.4-7.3 4.9-14.6 7.6-21.9C28.7 6.3 27.5 5.9 27.2 6.7L27.2 6.7z"></path></g></g><g fill="black"><g fill="black"><path fill="black" d="M29.3 11.6c1.5 1.1 2.9 2.3 4.4 3.4 0.9 0.7 1.8 1.4 2.6 2.1 1.3 1 0.7 0.9-0.4 1.7-2.4 1.7-4.3 3.9-6 6.3-0.5 0.7 0.6 1.3 1.1 0.6 1.4-2 3.1-3.8 5-5.4 0.4-0.3 2.7-1.5 2.7-2.4 0-1.2-1.5-1.9-2.3-2.5-2.1-1.6-4.1-3.2-6.2-4.8C29.5 10.2 28.6 11.1 29.3 11.6L29.3 11.6z"></path></g></g><g fill="black"><g fill="black"><path fill="black" d="M2.3 31.9c14.8 0.3 29.5 0.2 44.3-0.3 0.8 0 0.8-1.3 0-1.3-14.8 0.6-29.5 0.7-44.3 0.3C1.5 30.6 1.5 31.9 2.3 31.9L2.3 31.9z"></path></g></g><g fill="black"><g fill="black"><path fill="black" d="M21.1 36.6c1.1 0 2.2 0 3.3 0 0.8 0 0.8-1.3 0-1.3-1.1 0-2.2 0-3.3 0C20.3 35.4 20.3 36.6 21.1 36.6L21.1 36.6z"></path></g></g><g fill="black"><g fill="black"><path fill="black" d="M23.8 40.3c-0.3 1.8-0.4 3.6-0.2 5.5 0.1 0.8 1.3 0.8 1.3 0-0.2-1.7-0.2-3.4 0.1-5.1C25.2 39.8 24 39.5 23.8 40.3L23.8 40.3z"></path></g></g><g fill="black"><g fill="black"><path fill="black" d="M15.1 47.1c6.9 0 13.8 0 20.6 0 0.8 0 0.8-1.3 0-1.3-6.9 0-13.8 0-20.6 0C14.3 45.8 14.3 47.1 15.1 47.1L15.1 47.1z"></path></g></g></g></svg></g></svg></g><g></g></svg></g></svg></g><g><path d="M0 247.2v-247.2h395.52v247.2zM389.56 241.24v-235.28h-383.6v235.28z" fill="black" fill-rule="nonzero" stroke="none" stroke-width="1" stroke-linecap="butt" stroke-linejoin="miter" stroke-miterlimit="10" stroke-dasharray="" stroke-dashoffset="0" font-family="none" font-weight="none" font-size="none" text-anchor="none" style="mix-blend-mode: normal"></path></g></svg></g><defs><mask></mask></defs><mask><g id="SvgjsG1251"><svg viewBox="0 0 395.52 247.2" height="247.2" width="395.52"><g><svg></svg></g><g><svg viewBox="0 0 395.52 247.2" height="247.2" width="395.52"><g transform="matrix(1,0,0,1,121.92729413735792,37.08)"><svg viewBox="0 0 151.66541172528414 173.04" height="173.04" width="151.66541172528414"><g><svg viewBox="0 0 316.416 361.00930342097365" height="173.04" width="151.66541172528414"><g transform="matrix(1,0,0,1,0,223.1182324891238)"><svg viewBox="0 0 316.416 137.8910709318498" height="137.8910709318498" width="316.416"><g id="SvgjsG1250"><svg viewBox="0 0 316.416 137.8910709318498" height="137.8910709318498" width="316.416" id="SvgjsSvg1249"><g><svg viewBox="0 0 316.416 137.8910709318498" height="137.8910709318498" width="316.416"><g transform="matrix(1,0,0,1,0,0)"><svg width="316.416" viewBox="2.5 -37 107.84 47" height="137.8910709318498" data-palette-color="url(#2e54867d-d896-4865-acaf-4b55d7ab4840)"><path d="M20.75 0L20.75-4.2 20.55-4.2Q18.2 0.6 13 0.6L13 0.6Q10.6 0.6 8.65-0.35 6.7-1.3 5.33-3.05 3.95-4.8 3.23-7.3 2.5-9.8 2.5-12.9L2.5-12.9Q2.5-16 3.23-18.5 3.95-21 5.33-22.75 6.7-24.5 8.65-25.45 10.6-26.4 13-26.4L13-26.4Q15.7-26.4 17.63-25.23 19.55-24.05 20.55-21.6L20.55-21.6 20.75-21.6 20.75-37 24.75-37 24.75 0 20.75 0ZM14.1-3L14.1-3Q15.45-3 16.68-3.35 17.9-3.7 18.8-4.38 19.7-5.05 20.23-6.03 20.75-7 20.75-8.25L20.75-8.25 20.75-17.85Q20.75-18.9 20.23-19.83 19.7-20.75 18.8-21.4 17.9-22.05 16.68-22.43 15.45-22.8 14.1-22.8L14.1-22.8Q10.7-22.8 8.75-20.68 6.8-18.55 6.8-15.1L6.8-15.1 6.8-10.7Q6.8-7.25 8.75-5.13 10.7-3 14.1-3ZM54.25 0L52 0Q49.75 0 48.77-1.2 47.8-2.4 47.55-4.2L47.55-4.2 47.3-4.2Q46.45-1.8 44.5-0.6 42.55 0.6 39.85 0.6L39.85 0.6Q35.75 0.6 33.47-1.5 31.2-3.6 31.2-7.2L31.2-7.2Q31.2-10.85 33.87-12.8 36.55-14.75 42.2-14.75L42.2-14.75 47.3-14.75 47.3-17.3Q47.3-20.05 45.8-21.5 44.3-22.95 41.2-22.95L41.2-22.95Q38.85-22.95 37.27-21.9 35.7-20.85 34.65-19.1L34.65-19.1 32.25-21.35Q33.3-23.45 35.6-24.93 37.9-26.4 41.4-26.4L41.4-26.4Q46.1-26.4 48.7-24.1 51.3-21.8 51.3-17.7L51.3-17.7 51.3-3.5 54.25-3.5 54.25 0ZM40.5-2.8L40.5-2.8Q42-2.8 43.25-3.15 44.5-3.5 45.4-4.15 46.3-4.8 46.8-5.65 47.3-6.5 47.3-7.5L47.3-7.5 47.3-11.75 42-11.75Q38.55-11.75 36.97-10.75 35.4-9.75 35.4-7.85L35.4-7.85 35.4-6.8Q35.4-4.9 36.77-3.85 38.15-2.8 40.5-2.8ZM59.95 10L59.95-25.8 63.95-25.8 63.95-21.6 64.15-21.6Q65.15-24.05 67.07-25.23 69-26.4 71.7-26.4L71.7-26.4Q74.1-26.4 76.05-25.45 78-24.5 79.37-22.75 80.75-21 81.47-18.5 82.2-16 82.2-12.9L82.2-12.9Q82.2-9.8 81.47-7.3 80.75-4.8 79.37-3.05 78-1.3 76.05-0.35 74.1 0.6 71.7 0.6L71.7 0.6Q66.45 0.6 64.15-4.2L64.15-4.2 63.95-4.2 63.95 10 59.95 10ZM70.6-3L70.6-3Q74-3 75.95-5.13 77.9-7.25 77.9-10.7L77.9-10.7 77.9-15.1Q77.9-18.55 75.95-20.68 74-22.8 70.6-22.8L70.6-22.8Q69.25-22.8 68.02-22.43 66.8-22.05 65.9-21.4 65-20.75 64.47-19.83 63.95-18.9 63.95-17.85L63.95-17.85 63.95-8.25Q63.95-7 64.47-6.03 65-5.05 65.9-4.38 66.8-3.7 68.02-3.35 69.25-3 70.6-3ZM98.69 0.6L98.69 0.6Q96.09 0.6 93.94-0.35 91.79-1.3 90.27-3.08 88.74-4.85 87.89-7.33 87.04-9.8 87.04-12.9L87.04-12.9Q87.04-15.95 87.89-18.45 88.74-20.95 90.27-22.73 91.79-24.5 93.94-25.45 96.09-26.4 98.69-26.4L98.69-26.4Q101.29-26.4 103.42-25.45 105.54-24.5 107.09-22.73 108.64-20.95 109.49-18.45 110.34-15.95 110.34-12.9L110.34-12.9Q110.34-9.8 109.49-7.33 108.64-4.85 107.09-3.08 105.54-1.3 103.42-0.35 101.29 0.6 98.69 0.6ZM98.69-2.95L98.69-2.95Q101.94-2.95 103.99-4.95 106.04-6.95 106.04-11.05L106.04-11.05 106.04-14.75Q106.04-18.85 103.99-20.85 101.94-22.85 98.69-22.85L98.69-22.85Q95.44-22.85 93.39-20.85 91.34-18.85 91.34-14.75L91.34-14.75 91.34-11.05Q91.34-6.95 93.39-4.95 95.44-2.95 98.69-2.95Z" opacity="1" transform="matrix(1,0,0,1,0,0)" fill="black" class="wordmark-text-0" id="SvgjsPath1248"></path></svg></g></svg></g></svg></g></svg></g><g transform="matrix(1,0,0,1,62.1325475523105,0)"><svg viewBox="0 0 192.150904895379 190.56546002781644" height="190.56546002781644" width="192.150904895379"><g><svg xmlns="http://www.w3.org/2000/svg" xmlns:xlink="http://www.w3.org/1999/xlink" version="1.1" x="0" y="0" viewBox="0.7534958055897398 0.8368608799048752 46.64803392980818 46.263139120095126" enable-background="new 0 0 48 48" xml:space="preserve" height="190.56546002781644" width="192.150904895379" class="icon-icon-0" data-fill-palette-color="accent" id="SvgjsSvg1247"><g fill="black"><g fill="black"><g fill="black"><path fill="black" d="M0.9 2.4C1.3 11.2 1.3 20.1 1.3 29c0 2.1-0.8 11.5 2.9 11.7 8.7 0.6 17.6 0.1 26.3 0.1 2.4 0 14.7 1.5 15.6-1.8 2.1-7.3 1.1-16.1 0.8-23.6-0.2-4.2-0.4-8.5-0.6-12.7 0-0.9-0.4-1.1-1.2-1.3-3.4-1-8.2-0.1-11.7-0.2-4.5-0.1-9-0.1-13.5-0.2C15.4 1.1 10.9 1 6.4 1c-1.7 0-4.2-0.7-5.5 0.8C0.4 2.3 1.3 3.2 1.8 2.6c1.1-1.2 7-0.4 8.5-0.3 3.2 0 6.4 0.1 9.6 0.1 6.4 0.1 12.9 0.2 19.3 0.3 1.3 0 2.6 0 3.9 0.1 2.8 0 2.2 3.9 2.3 5.5 0.2 3.1 0.3 6.1 0.4 9.2 0.3 6.2 0.3 12.5-0.3 18.7-0.5 5.4-15.4 3.6-18.8 3.6-6.5 0-13 0-19.4 0-5.1 0-4.4-4.7-4.6-8.6-0.1-3.2 0-6.4 0-9.6 0-6.3-0.2-12.7-0.4-19C2.2 1.5 0.9 1.5 0.9 2.4L0.9 2.4z"></path></g></g><g fill="black"><g fill="black"><path fill="black" d="M17.2 10.2c-1.6 1.4-3.8 2.1-5.5 3.3-1 0.7-2.9 2.1-3.3 3.4-0.2 0.9 0.9 1.4 1.5 1.8 2.4 1.5 4.5 3.3 6.4 5.3 0.6 0.6 1.4-0.3 0.9-0.9-1.2-1.2-2.4-2.4-3.7-3.5-0.5-0.4-3.8-2.4-3.3-3.1 2.2-2.6 5.5-3.4 8-5.6C18.7 10.5 17.8 9.6 17.2 10.2L17.2 10.2z"></path></g></g><g fill="black"><g fill="black"><path fill="black" d="M27.2 6.7c-2.7 7.2-5.2 14.5-7.6 21.9-0.3 0.8 1 1.1 1.2 0.3 2.4-7.3 4.9-14.6 7.6-21.9C28.7 6.3 27.5 5.9 27.2 6.7L27.2 6.7z"></path></g></g><g fill="black"><g fill="black"><path fill="black" d="M29.3 11.6c1.5 1.1 2.9 2.3 4.4 3.4 0.9 0.7 1.8 1.4 2.6 2.1 1.3 1 0.7 0.9-0.4 1.7-2.4 1.7-4.3 3.9-6 6.3-0.5 0.7 0.6 1.3 1.1 0.6 1.4-2 3.1-3.8 5-5.4 0.4-0.3 2.7-1.5 2.7-2.4 0-1.2-1.5-1.9-2.3-2.5-2.1-1.6-4.1-3.2-6.2-4.8C29.5 10.2 28.6 11.1 29.3 11.6L29.3 11.6z"></path></g></g><g fill="black"><g fill="black"><path fill="black" d="M2.3 31.9c14.8 0.3 29.5 0.2 44.3-0.3 0.8 0 0.8-1.3 0-1.3-14.8 0.6-29.5 0.7-44.3 0.3C1.5 30.6 1.5 31.9 2.3 31.9L2.3 31.9z"></path></g></g><g fill="black"><g fill="black"><path fill="black" d="M21.1 36.6c1.1 0 2.2 0 3.3 0 0.8 0 0.8-1.3 0-1.3-1.1 0-2.2 0-3.3 0C20.3 35.4 20.3 36.6 21.1 36.6L21.1 36.6z"></path></g></g><g fill="black"><g fill="black"><path fill="black" d="M23.8 40.3c-0.3 1.8-0.4 3.6-0.2 5.5 0.1 0.8 1.3 0.8 1.3 0-0.2-1.7-0.2-3.4 0.1-5.1C25.2 39.8 24 39.5 23.8 40.3L23.8 40.3z"></path></g></g><g fill="black"><g fill="black"><path fill="black" d="M15.1 47.1c6.9 0 13.8 0 20.6 0 0.8 0 0.8-1.3 0-1.3-6.9 0-13.8 0-20.6 0C14.3 45.8 14.3 47.1 15.1 47.1L15.1 47.1z"></path></g></g></g></svg></g></svg></g><g></g></svg></g></svg></g><g><path d="M0 247.2v-247.2h395.52v247.2zM389.56 241.24v-235.28h-383.6v235.28z" fill="black" fill-rule="nonzero" stroke="none" stroke-width="1" stroke-linecap="butt" stroke-linejoin="miter" stroke-miterlimit="10" stroke-dasharray="" stroke-dashoffset="0" font-family="none" font-weight="none" font-size="none" text-anchor="none" style="mix-blend-mode: normal"></path></g></svg></g><defs><mask></mask></defs></svg><rect width="395.52" height="247.2" fill="black" stroke="none" visibility="hidden"></rect></g></mask></svg><rect width="395.52" height="247.2" fill="black" stroke="none" visibility="hidden"></rect></g></mask></svg><rect width="395.52" height="247.2" fill="black" stroke="none" visibility="hidden"></rect></g></mask><linearGradient x1="0" x2="1" y1="0.5" y2="0.5" id="a5a67b81-010a-4acb-b564-c592cbc80073"><stop stop-color="#ffa62e" offset="0"></stop><stop stop-color="#f71b3d" offset="1"></stop></linearGradient></svg><rect width="395.52" height="247.2" fill="none" stroke="none" visibility="hidden"></rect></g></svg></g></svg>